<mxfile host="app.diagrams.net" modified="2024-05-25T02:07:50.016Z" agent="Mozilla/5.0 (Windows NT 10.0; Win64; x64) AppleWebKit/537.36 (KHTML, like Gecko) Chrome/125.0.0.0 Safari/537.36" etag="nzjYOjJLxgYJJ0eHnpXm" version="24.2.5" type="github">
  <diagram name="第 1 页" id="DQh3fc6psMyw85Z0XzZS">
    <mxGraphModel dx="1221" dy="777" grid="1" gridSize="10" guides="1" tooltips="1" connect="1" arrows="1" fold="1" page="1" pageScale="1" pageWidth="827" pageHeight="1169" math="0" shadow="0">
      <root>
        <mxCell id="0" />
        <mxCell id="1" parent="0" />
        <mxCell id="Wv-iVQrVYat-YHuMPyjr-1" value="" style="rounded=1;whiteSpace=wrap;html=1;gradientColor=none;fillColor=#000000;" vertex="1" parent="1">
          <mxGeometry x="160" y="350" width="120" height="20" as="geometry" />
        </mxCell>
        <mxCell id="Wv-iVQrVYat-YHuMPyjr-2" value="" style="rounded=1;whiteSpace=wrap;html=1;gradientColor=none;fillColor=#000000;" vertex="1" parent="1">
          <mxGeometry x="320" y="350" width="120" height="20" as="geometry" />
        </mxCell>
        <mxCell id="Wv-iVQrVYat-YHuMPyjr-3" value="" style="rounded=1;whiteSpace=wrap;html=1;gradientColor=none;fillColor=#000000;" vertex="1" parent="1">
          <mxGeometry x="160" y="190" width="280" height="20" as="geometry" />
        </mxCell>
        <mxCell id="Wv-iVQrVYat-YHuMPyjr-4" value="" style="shape=cross;whiteSpace=wrap;html=1;rotation=45;strokeColor=#000000;fillColor=#000000;" vertex="1" parent="1">
          <mxGeometry x="520" y="320" width="80" height="80" as="geometry" />
        </mxCell>
        <mxCell id="Wv-iVQrVYat-YHuMPyjr-5" value="" style="verticalLabelPosition=bottom;verticalAlign=top;html=1;shape=mxgraph.basic.donut;dx=16.56;fillColor=#000000;" vertex="1" parent="1">
          <mxGeometry x="520" y="160" width="80" height="80" as="geometry" />
        </mxCell>
      </root>
    </mxGraphModel>
  </diagram>
</mxfile>
